<svg xmlns="http://www.w3.org/2000/svg" version="1.1" xmlns:xlink="http://www.w3.org/1999/xlink" xmlns:svgjs="http://svgjs.com/svgjs" width="16" height="16"><svg version="1.1" id="SvgjsSvg1000" xmlns="http://www.w3.org/2000/svg" xmlns:xlink="http://www.w3.org/1999/xlink" x="0px" y="0px" viewBox="0 0 16 16" xml:space="preserve">
<g>
	<path d="M5.33,14.76v-1.58h2.03c0.45,0,0.8-0.13,1.06-0.4c0.26-0.27,0.39-0.63,0.39-1.08V6.12H5.26V4.54h5.31v7.2
		c0,0.93-0.28,1.67-0.84,2.21c-0.56,0.54-1.32,0.81-2.27,0.81H5.33z M9.6,3.25c-0.35,0-0.63-0.09-0.84-0.27
		C8.55,2.8,8.45,2.55,8.45,2.25s0.1-0.55,0.31-0.73C8.96,1.33,9.24,1.24,9.6,1.24c0.36,0,0.63,0.09,0.84,0.27s0.31,0.43,0.31,0.73
		s-0.1,0.55-0.31,0.73C10.23,3.16,9.95,3.25,9.6,3.25z"></path>
</g>
</svg><style>@media (prefers-color-scheme: light) { :root { filter: none; } }
@media (prefers-color-scheme: dark) { :root { filter: invert(100%); } }
</style></svg>